<mxfile host="Electron" agent="Mozilla/5.0 (Windows NT 10.0; Win64; x64) AppleWebKit/537.36 (KHTML, like Gecko) draw.io/26.2.15 Chrome/134.0.6998.205 Electron/35.2.1 Safari/537.36" version="26.2.15">
  <diagram id="C5RBs43oDa-KdzZeNtuy" name="Page-1">
    <mxGraphModel dx="1043" dy="625" grid="1" gridSize="10" guides="1" tooltips="1" connect="1" arrows="1" fold="1" page="1" pageScale="1" pageWidth="827" pageHeight="1169" math="0" shadow="0">
      <root>
        <mxCell id="WIyWlLk6GJQsqaUBKTNV-0" />
        <mxCell id="WIyWlLk6GJQsqaUBKTNV-1" parent="WIyWlLk6GJQsqaUBKTNV-0" />
        <mxCell id="CmlGcjkPcIgELrgO4bC8-3" style="edgeStyle=orthogonalEdgeStyle;rounded=0;orthogonalLoop=1;jettySize=auto;html=1;exitX=0.5;exitY=1;exitDx=0;exitDy=0;entryX=0.5;entryY=0;entryDx=0;entryDy=0;" edge="1" parent="WIyWlLk6GJQsqaUBKTNV-1" source="WIyWlLk6GJQsqaUBKTNV-3" target="CmlGcjkPcIgELrgO4bC8-0">
          <mxGeometry relative="1" as="geometry" />
        </mxCell>
        <mxCell id="WIyWlLk6GJQsqaUBKTNV-3" value="主程序开始" style="rounded=1;whiteSpace=wrap;html=1;fontSize=12;glass=0;strokeWidth=1;shadow=0;" parent="WIyWlLk6GJQsqaUBKTNV-1" vertex="1">
          <mxGeometry x="160" y="40" width="120" height="40" as="geometry" />
        </mxCell>
        <mxCell id="2ltraiP_QTm35YtcfbR_-2" style="edgeStyle=orthogonalEdgeStyle;rounded=0;orthogonalLoop=1;jettySize=auto;html=1;exitX=0.5;exitY=1;exitDx=0;exitDy=0;entryX=0.5;entryY=0;entryDx=0;entryDy=0;" parent="WIyWlLk6GJQsqaUBKTNV-1" source="2ltraiP_QTm35YtcfbR_-0" edge="1">
          <mxGeometry relative="1" as="geometry">
            <mxPoint x="220" y="320" as="targetPoint" />
          </mxGeometry>
        </mxCell>
        <mxCell id="Mp8wmOKZBMDXcaJQwr02-14" value="开始4次循环" style="edgeLabel;html=1;align=center;verticalAlign=middle;resizable=0;points=[];" parent="2ltraiP_QTm35YtcfbR_-2" vertex="1" connectable="0">
          <mxGeometry x="0.1809" y="1" relative="1" as="geometry">
            <mxPoint as="offset" />
          </mxGeometry>
        </mxCell>
        <mxCell id="2ltraiP_QTm35YtcfbR_-0" value="&lt;font style=&quot;font-size: 9px;&quot;&gt;按键扫描函数（改显示值）&lt;/font&gt;&lt;div&gt;&lt;font style=&quot;font-size: 9px;&quot;&gt;数码管片选初值&lt;/font&gt;&lt;/div&gt;" style="rounded=0;whiteSpace=wrap;html=1;" parent="WIyWlLk6GJQsqaUBKTNV-1" vertex="1">
          <mxGeometry x="160" y="260" width="120" height="30" as="geometry" />
        </mxCell>
        <mxCell id="Mp8wmOKZBMDXcaJQwr02-5" style="edgeStyle=orthogonalEdgeStyle;rounded=0;orthogonalLoop=1;jettySize=auto;html=1;exitX=0.5;exitY=1;exitDx=0;exitDy=0;entryX=0.5;entryY=0;entryDx=0;entryDy=0;" parent="WIyWlLk6GJQsqaUBKTNV-1" source="2ltraiP_QTm35YtcfbR_-5" target="Mp8wmOKZBMDXcaJQwr02-1" edge="1">
          <mxGeometry relative="1" as="geometry" />
        </mxCell>
        <mxCell id="2ltraiP_QTm35YtcfbR_-5" value="片选值赋值IO寄存器" style="rounded=0;whiteSpace=wrap;html=1;" parent="WIyWlLk6GJQsqaUBKTNV-1" vertex="1">
          <mxGeometry x="160" y="320" width="120" height="30" as="geometry" />
        </mxCell>
        <mxCell id="Mp8wmOKZBMDXcaJQwr02-6" style="edgeStyle=orthogonalEdgeStyle;rounded=0;orthogonalLoop=1;jettySize=auto;html=1;exitX=0.5;exitY=1;exitDx=0;exitDy=0;entryX=0.5;entryY=0;entryDx=0;entryDy=0;" parent="WIyWlLk6GJQsqaUBKTNV-1" source="Mp8wmOKZBMDXcaJQwr02-1" target="Mp8wmOKZBMDXcaJQwr02-2" edge="1">
          <mxGeometry relative="1" as="geometry" />
        </mxCell>
        <mxCell id="Mp8wmOKZBMDXcaJQwr02-1" value="赋值数码管段选寄存器" style="rounded=0;whiteSpace=wrap;html=1;" parent="WIyWlLk6GJQsqaUBKTNV-1" vertex="1">
          <mxGeometry x="155" y="370" width="130" height="30" as="geometry" />
        </mxCell>
        <mxCell id="Mp8wmOKZBMDXcaJQwr02-7" style="edgeStyle=orthogonalEdgeStyle;rounded=0;orthogonalLoop=1;jettySize=auto;html=1;exitX=0.5;exitY=1;exitDx=0;exitDy=0;entryX=0.5;entryY=0;entryDx=0;entryDy=0;" parent="WIyWlLk6GJQsqaUBKTNV-1" source="Mp8wmOKZBMDXcaJQwr02-2" target="Mp8wmOKZBMDXcaJQwr02-3" edge="1">
          <mxGeometry relative="1" as="geometry" />
        </mxCell>
        <mxCell id="Mp8wmOKZBMDXcaJQwr02-2" value="片选值左移，准备&lt;div&gt;显示下一位&lt;/div&gt;" style="rounded=0;whiteSpace=wrap;html=1;" parent="WIyWlLk6GJQsqaUBKTNV-1" vertex="1">
          <mxGeometry x="160" y="420" width="120" height="30" as="geometry" />
        </mxCell>
        <mxCell id="Mp8wmOKZBMDXcaJQwr02-9" style="edgeStyle=orthogonalEdgeStyle;rounded=0;orthogonalLoop=1;jettySize=auto;html=1;exitX=0;exitY=0.75;exitDx=0;exitDy=0;entryX=0;entryY=0.5;entryDx=0;entryDy=0;" parent="WIyWlLk6GJQsqaUBKTNV-1" source="Mp8wmOKZBMDXcaJQwr02-3" target="2ltraiP_QTm35YtcfbR_-5" edge="1">
          <mxGeometry relative="1" as="geometry">
            <Array as="points">
              <mxPoint x="120" y="492" />
              <mxPoint x="120" y="335" />
            </Array>
          </mxGeometry>
        </mxCell>
        <mxCell id="Mp8wmOKZBMDXcaJQwr02-10" value="循环4次，显示4位" style="edgeLabel;html=1;align=center;verticalAlign=middle;resizable=0;points=[];" parent="Mp8wmOKZBMDXcaJQwr02-9" vertex="1" connectable="0">
          <mxGeometry x="0.0525" y="-1" relative="1" as="geometry">
            <mxPoint as="offset" />
          </mxGeometry>
        </mxCell>
        <mxCell id="Mp8wmOKZBMDXcaJQwr02-11" style="edgeStyle=orthogonalEdgeStyle;rounded=0;orthogonalLoop=1;jettySize=auto;html=1;exitX=1;exitY=0.5;exitDx=0;exitDy=0;entryX=1;entryY=0.5;entryDx=0;entryDy=0;" parent="WIyWlLk6GJQsqaUBKTNV-1" source="Mp8wmOKZBMDXcaJQwr02-3" target="2ltraiP_QTm35YtcfbR_-0" edge="1">
          <mxGeometry relative="1" as="geometry">
            <Array as="points">
              <mxPoint x="320" y="485" />
              <mxPoint x="320" y="275" />
            </Array>
          </mxGeometry>
        </mxCell>
        <mxCell id="Mp8wmOKZBMDXcaJQwr02-12" value="4次循环结束" style="edgeLabel;html=1;align=center;verticalAlign=middle;resizable=0;points=[];" parent="Mp8wmOKZBMDXcaJQwr02-11" vertex="1" connectable="0">
          <mxGeometry x="-0.0197" y="1" relative="1" as="geometry">
            <mxPoint as="offset" />
          </mxGeometry>
        </mxCell>
        <mxCell id="Mp8wmOKZBMDXcaJQwr02-3" value="适当阻塞式延时" style="rounded=0;whiteSpace=wrap;html=1;" parent="WIyWlLk6GJQsqaUBKTNV-1" vertex="1">
          <mxGeometry x="160" y="470" width="120" height="30" as="geometry" />
        </mxCell>
        <mxCell id="CmlGcjkPcIgELrgO4bC8-0" value="&lt;font size=&quot;1&quot;&gt;定时器1初始化&lt;/font&gt;" style="rounded=0;whiteSpace=wrap;html=1;" vertex="1" parent="WIyWlLk6GJQsqaUBKTNV-1">
          <mxGeometry x="160" y="100" width="120" height="30" as="geometry" />
        </mxCell>
        <mxCell id="CmlGcjkPcIgELrgO4bC8-5" style="edgeStyle=orthogonalEdgeStyle;rounded=0;orthogonalLoop=1;jettySize=auto;html=1;exitX=0.5;exitY=1;exitDx=0;exitDy=0;entryX=0.5;entryY=0;entryDx=0;entryDy=0;" edge="1" parent="WIyWlLk6GJQsqaUBKTNV-1" source="CmlGcjkPcIgELrgO4bC8-1" target="CmlGcjkPcIgELrgO4bC8-2">
          <mxGeometry relative="1" as="geometry" />
        </mxCell>
        <mxCell id="CmlGcjkPcIgELrgO4bC8-1" value="&lt;font size=&quot;1&quot;&gt;INT0中断初始化&lt;/font&gt;&lt;div&gt;&lt;font size=&quot;1&quot;&gt;（按键与门总中断）&lt;/font&gt;&lt;/div&gt;" style="rounded=0;whiteSpace=wrap;html=1;" vertex="1" parent="WIyWlLk6GJQsqaUBKTNV-1">
          <mxGeometry x="160" y="150" width="120" height="30" as="geometry" />
        </mxCell>
        <mxCell id="CmlGcjkPcIgELrgO4bC8-14" style="edgeStyle=orthogonalEdgeStyle;rounded=0;orthogonalLoop=1;jettySize=auto;html=1;exitX=0.5;exitY=1;exitDx=0;exitDy=0;entryX=0.5;entryY=0;entryDx=0;entryDy=0;" edge="1" parent="WIyWlLk6GJQsqaUBKTNV-1" source="CmlGcjkPcIgELrgO4bC8-2" target="2ltraiP_QTm35YtcfbR_-0">
          <mxGeometry relative="1" as="geometry" />
        </mxCell>
        <mxCell id="CmlGcjkPcIgELrgO4bC8-2" value="&lt;font size=&quot;1&quot;&gt;数码管显示控制变量&lt;/font&gt;&lt;div&gt;&lt;font size=&quot;1&quot;&gt;初始化&lt;/font&gt;&lt;/div&gt;" style="rounded=0;whiteSpace=wrap;html=1;" vertex="1" parent="WIyWlLk6GJQsqaUBKTNV-1">
          <mxGeometry x="160" y="200" width="120" height="30" as="geometry" />
        </mxCell>
        <mxCell id="CmlGcjkPcIgELrgO4bC8-4" style="edgeStyle=orthogonalEdgeStyle;rounded=0;orthogonalLoop=1;jettySize=auto;html=1;exitX=0.5;exitY=1;exitDx=0;exitDy=0;entryX=0.501;entryY=-0.134;entryDx=0;entryDy=0;entryPerimeter=0;" edge="1" parent="WIyWlLk6GJQsqaUBKTNV-1" source="CmlGcjkPcIgELrgO4bC8-0" target="CmlGcjkPcIgELrgO4bC8-1">
          <mxGeometry relative="1" as="geometry" />
        </mxCell>
        <mxCell id="CmlGcjkPcIgELrgO4bC8-21" style="edgeStyle=orthogonalEdgeStyle;rounded=0;orthogonalLoop=1;jettySize=auto;html=1;exitX=0.5;exitY=1;exitDx=0;exitDy=0;entryX=0.5;entryY=0;entryDx=0;entryDy=0;" edge="1" parent="WIyWlLk6GJQsqaUBKTNV-1" source="CmlGcjkPcIgELrgO4bC8-15" target="CmlGcjkPcIgELrgO4bC8-18">
          <mxGeometry relative="1" as="geometry" />
        </mxCell>
        <mxCell id="CmlGcjkPcIgELrgO4bC8-15" value="定时器1中断开始&lt;div&gt;（50ms一次）&lt;/div&gt;" style="rounded=1;whiteSpace=wrap;html=1;fontSize=12;glass=0;strokeWidth=1;shadow=0;" vertex="1" parent="WIyWlLk6GJQsqaUBKTNV-1">
          <mxGeometry x="320" y="40" width="120" height="40" as="geometry" />
        </mxCell>
        <mxCell id="CmlGcjkPcIgELrgO4bC8-23" style="edgeStyle=orthogonalEdgeStyle;rounded=0;orthogonalLoop=1;jettySize=auto;html=1;exitX=0.5;exitY=1;exitDx=0;exitDy=0;entryX=0.5;entryY=0;entryDx=0;entryDy=0;" edge="1" parent="WIyWlLk6GJQsqaUBKTNV-1" source="CmlGcjkPcIgELrgO4bC8-17" target="CmlGcjkPcIgELrgO4bC8-19">
          <mxGeometry relative="1" as="geometry">
            <mxPoint x="380.19047619047615" y="190" as="targetPoint" />
          </mxGeometry>
        </mxCell>
        <mxCell id="CmlGcjkPcIgELrgO4bC8-17" value="&lt;font size=&quot;1&quot;&gt;计数器counter自增&lt;/font&gt;" style="rounded=0;whiteSpace=wrap;html=1;" vertex="1" parent="WIyWlLk6GJQsqaUBKTNV-1">
          <mxGeometry x="320" y="150" width="120" height="30" as="geometry" />
        </mxCell>
        <mxCell id="CmlGcjkPcIgELrgO4bC8-22" style="edgeStyle=orthogonalEdgeStyle;rounded=0;orthogonalLoop=1;jettySize=auto;html=1;exitX=0.5;exitY=1;exitDx=0;exitDy=0;entryX=0.5;entryY=0;entryDx=0;entryDy=0;" edge="1" parent="WIyWlLk6GJQsqaUBKTNV-1" source="CmlGcjkPcIgELrgO4bC8-18" target="CmlGcjkPcIgELrgO4bC8-17">
          <mxGeometry relative="1" as="geometry" />
        </mxCell>
        <mxCell id="CmlGcjkPcIgELrgO4bC8-18" value="&lt;font size=&quot;1&quot;&gt;TH1,TL1软件重装载&lt;/font&gt;" style="rounded=0;whiteSpace=wrap;html=1;" vertex="1" parent="WIyWlLk6GJQsqaUBKTNV-1">
          <mxGeometry x="320" y="100" width="120" height="30" as="geometry" />
        </mxCell>
        <mxCell id="CmlGcjkPcIgELrgO4bC8-25" style="edgeStyle=orthogonalEdgeStyle;rounded=0;orthogonalLoop=1;jettySize=auto;html=1;exitX=0.5;exitY=1;exitDx=0;exitDy=0;entryX=0.5;entryY=0;entryDx=0;entryDy=0;" edge="1" parent="WIyWlLk6GJQsqaUBKTNV-1" source="CmlGcjkPcIgELrgO4bC8-19" target="CmlGcjkPcIgELrgO4bC8-24">
          <mxGeometry relative="1" as="geometry" />
        </mxCell>
        <mxCell id="CmlGcjkPcIgELrgO4bC8-26" value="是" style="edgeLabel;html=1;align=center;verticalAlign=middle;resizable=0;points=[];" vertex="1" connectable="0" parent="CmlGcjkPcIgELrgO4bC8-25">
          <mxGeometry x="0.0906" y="1" relative="1" as="geometry">
            <mxPoint as="offset" />
          </mxGeometry>
        </mxCell>
        <mxCell id="CmlGcjkPcIgELrgO4bC8-28" style="edgeStyle=orthogonalEdgeStyle;rounded=0;orthogonalLoop=1;jettySize=auto;html=1;exitX=1;exitY=0.5;exitDx=0;exitDy=0;entryX=0.5;entryY=0;entryDx=0;entryDy=0;" edge="1" parent="WIyWlLk6GJQsqaUBKTNV-1" source="CmlGcjkPcIgELrgO4bC8-19" target="CmlGcjkPcIgELrgO4bC8-29">
          <mxGeometry relative="1" as="geometry">
            <mxPoint x="480" y="214.90476190476193" as="targetPoint" />
          </mxGeometry>
        </mxCell>
        <mxCell id="CmlGcjkPcIgELrgO4bC8-30" value="否" style="edgeLabel;html=1;align=center;verticalAlign=middle;resizable=0;points=[];" vertex="1" connectable="0" parent="CmlGcjkPcIgELrgO4bC8-28">
          <mxGeometry x="-0.172" y="-2" relative="1" as="geometry">
            <mxPoint as="offset" />
          </mxGeometry>
        </mxCell>
        <mxCell id="CmlGcjkPcIgELrgO4bC8-19" value="counter==20?" style="rhombus;whiteSpace=wrap;html=1;" vertex="1" parent="WIyWlLk6GJQsqaUBKTNV-1">
          <mxGeometry x="330" y="195" width="100" height="40" as="geometry" />
        </mxCell>
        <mxCell id="CmlGcjkPcIgELrgO4bC8-32" style="edgeStyle=orthogonalEdgeStyle;rounded=0;orthogonalLoop=1;jettySize=auto;html=1;exitX=0.5;exitY=1;exitDx=0;exitDy=0;entryX=0.5;entryY=0;entryDx=0;entryDy=0;" edge="1" parent="WIyWlLk6GJQsqaUBKTNV-1" source="CmlGcjkPcIgELrgO4bC8-24" target="CmlGcjkPcIgELrgO4bC8-27">
          <mxGeometry relative="1" as="geometry" />
        </mxCell>
        <mxCell id="CmlGcjkPcIgELrgO4bC8-24" value="&lt;font size=&quot;1&quot;&gt;counter清零&lt;/font&gt;" style="rounded=0;whiteSpace=wrap;html=1;" vertex="1" parent="WIyWlLk6GJQsqaUBKTNV-1">
          <mxGeometry x="330" y="250" width="120" height="30" as="geometry" />
        </mxCell>
        <mxCell id="CmlGcjkPcIgELrgO4bC8-33" style="edgeStyle=orthogonalEdgeStyle;rounded=0;orthogonalLoop=1;jettySize=auto;html=1;exitX=0.5;exitY=1;exitDx=0;exitDy=0;entryX=0.5;entryY=0;entryDx=0;entryDy=0;" edge="1" parent="WIyWlLk6GJQsqaUBKTNV-1" source="CmlGcjkPcIgELrgO4bC8-27" target="CmlGcjkPcIgELrgO4bC8-31">
          <mxGeometry relative="1" as="geometry" />
        </mxCell>
        <mxCell id="CmlGcjkPcIgELrgO4bC8-27" value="&lt;font size=&quot;1&quot;&gt;Dat_int循环自减&lt;/font&gt;" style="rounded=0;whiteSpace=wrap;html=1;" vertex="1" parent="WIyWlLk6GJQsqaUBKTNV-1">
          <mxGeometry x="330" y="290" width="120" height="30" as="geometry" />
        </mxCell>
        <mxCell id="CmlGcjkPcIgELrgO4bC8-29" value="结束" style="rounded=1;whiteSpace=wrap;html=1;fontSize=12;glass=0;strokeWidth=1;shadow=0;" vertex="1" parent="WIyWlLk6GJQsqaUBKTNV-1">
          <mxGeometry x="460" y="230" width="60" height="20" as="geometry" />
        </mxCell>
        <mxCell id="CmlGcjkPcIgELrgO4bC8-34" style="edgeStyle=orthogonalEdgeStyle;rounded=0;orthogonalLoop=1;jettySize=auto;html=1;exitX=0.5;exitY=1;exitDx=0;exitDy=0;entryX=0.5;entryY=1;entryDx=0;entryDy=0;" edge="1" parent="WIyWlLk6GJQsqaUBKTNV-1" source="CmlGcjkPcIgELrgO4bC8-31" target="CmlGcjkPcIgELrgO4bC8-29">
          <mxGeometry relative="1" as="geometry">
            <Array as="points">
              <mxPoint x="390" y="370" />
              <mxPoint x="490" y="370" />
            </Array>
          </mxGeometry>
        </mxCell>
        <mxCell id="CmlGcjkPcIgELrgO4bC8-31" value="&lt;font size=&quot;1&quot;&gt;Dat_int运算为Dat数组&lt;/font&gt;&lt;div&gt;&lt;font size=&quot;1&quot;&gt;（控制数码管显示）&lt;/font&gt;&lt;/div&gt;" style="rounded=0;whiteSpace=wrap;html=1;" vertex="1" parent="WIyWlLk6GJQsqaUBKTNV-1">
          <mxGeometry x="330" y="330" width="120" height="30" as="geometry" />
        </mxCell>
        <mxCell id="CmlGcjkPcIgELrgO4bC8-43" style="edgeStyle=orthogonalEdgeStyle;rounded=0;orthogonalLoop=1;jettySize=auto;html=1;exitX=0.5;exitY=1;exitDx=0;exitDy=0;entryX=0.5;entryY=0;entryDx=0;entryDy=0;" edge="1" parent="WIyWlLk6GJQsqaUBKTNV-1" source="CmlGcjkPcIgELrgO4bC8-35" target="CmlGcjkPcIgELrgO4bC8-37">
          <mxGeometry relative="1" as="geometry" />
        </mxCell>
        <mxCell id="CmlGcjkPcIgELrgO4bC8-35" value="INT0下降沿中断" style="rounded=1;whiteSpace=wrap;html=1;fontSize=12;glass=0;strokeWidth=1;shadow=0;" vertex="1" parent="WIyWlLk6GJQsqaUBKTNV-1">
          <mxGeometry x="470" y="40" width="120" height="40" as="geometry" />
        </mxCell>
        <mxCell id="CmlGcjkPcIgELrgO4bC8-42" style="edgeStyle=orthogonalEdgeStyle;rounded=0;orthogonalLoop=1;jettySize=auto;html=1;exitX=0.5;exitY=1;exitDx=0;exitDy=0;entryX=0.5;entryY=0;entryDx=0;entryDy=0;" edge="1" parent="WIyWlLk6GJQsqaUBKTNV-1" source="CmlGcjkPcIgELrgO4bC8-37" target="CmlGcjkPcIgELrgO4bC8-39">
          <mxGeometry relative="1" as="geometry" />
        </mxCell>
        <mxCell id="CmlGcjkPcIgELrgO4bC8-37" value="&lt;font size=&quot;1&quot;&gt;延时消抖&lt;/font&gt;" style="rounded=0;whiteSpace=wrap;html=1;" vertex="1" parent="WIyWlLk6GJQsqaUBKTNV-1">
          <mxGeometry x="470" y="100" width="120" height="30" as="geometry" />
        </mxCell>
        <mxCell id="CmlGcjkPcIgELrgO4bC8-47" style="edgeStyle=orthogonalEdgeStyle;rounded=0;orthogonalLoop=1;jettySize=auto;html=1;exitX=1;exitY=0.5;exitDx=0;exitDy=0;" edge="1" parent="WIyWlLk6GJQsqaUBKTNV-1" source="CmlGcjkPcIgELrgO4bC8-39">
          <mxGeometry relative="1" as="geometry">
            <mxPoint x="680" y="260" as="targetPoint" />
          </mxGeometry>
        </mxCell>
        <mxCell id="CmlGcjkPcIgELrgO4bC8-51" value="否" style="edgeLabel;html=1;align=center;verticalAlign=middle;resizable=0;points=[];" vertex="1" connectable="0" parent="CmlGcjkPcIgELrgO4bC8-47">
          <mxGeometry x="0.2262" relative="1" as="geometry">
            <mxPoint as="offset" />
          </mxGeometry>
        </mxCell>
        <mxCell id="CmlGcjkPcIgELrgO4bC8-39" value="KEY1按下吗？" style="rhombus;whiteSpace=wrap;html=1;" vertex="1" parent="WIyWlLk6GJQsqaUBKTNV-1">
          <mxGeometry x="530" y="150" width="100" height="40" as="geometry" />
        </mxCell>
        <mxCell id="CmlGcjkPcIgELrgO4bC8-49" style="edgeStyle=orthogonalEdgeStyle;rounded=0;orthogonalLoop=1;jettySize=auto;html=1;exitX=0.5;exitY=1;exitDx=0;exitDy=0;entryX=0.5;entryY=0;entryDx=0;entryDy=0;" edge="1" parent="WIyWlLk6GJQsqaUBKTNV-1" source="CmlGcjkPcIgELrgO4bC8-44" target="CmlGcjkPcIgELrgO4bC8-48">
          <mxGeometry relative="1" as="geometry" />
        </mxCell>
        <mxCell id="CmlGcjkPcIgELrgO4bC8-44" value="&lt;font size=&quot;1&quot;&gt;Dat_int设置到TIM_SET&lt;/font&gt;&lt;div&gt;&lt;font size=&quot;1&quot;&gt;(复位)&lt;/font&gt;&lt;/div&gt;" style="rounded=0;whiteSpace=wrap;html=1;" vertex="1" parent="WIyWlLk6GJQsqaUBKTNV-1">
          <mxGeometry x="530" y="200" width="120" height="30" as="geometry" />
        </mxCell>
        <mxCell id="CmlGcjkPcIgELrgO4bC8-45" style="edgeStyle=orthogonalEdgeStyle;rounded=0;orthogonalLoop=1;jettySize=auto;html=1;exitX=0.5;exitY=1;exitDx=0;exitDy=0;entryX=0.426;entryY=0.052;entryDx=0;entryDy=0;entryPerimeter=0;" edge="1" parent="WIyWlLk6GJQsqaUBKTNV-1" source="CmlGcjkPcIgELrgO4bC8-39" target="CmlGcjkPcIgELrgO4bC8-44">
          <mxGeometry relative="1" as="geometry" />
        </mxCell>
        <mxCell id="CmlGcjkPcIgELrgO4bC8-46" value="是" style="edgeLabel;html=1;align=center;verticalAlign=middle;resizable=0;points=[];" vertex="1" connectable="0" parent="CmlGcjkPcIgELrgO4bC8-45">
          <mxGeometry x="-0.7923" relative="1" as="geometry">
            <mxPoint as="offset" />
          </mxGeometry>
        </mxCell>
        <mxCell id="CmlGcjkPcIgELrgO4bC8-54" style="edgeStyle=orthogonalEdgeStyle;rounded=0;orthogonalLoop=1;jettySize=auto;html=1;exitX=0.5;exitY=1;exitDx=0;exitDy=0;entryX=0.5;entryY=0;entryDx=0;entryDy=0;" edge="1" parent="WIyWlLk6GJQsqaUBKTNV-1" source="CmlGcjkPcIgELrgO4bC8-48" target="CmlGcjkPcIgELrgO4bC8-53">
          <mxGeometry relative="1" as="geometry" />
        </mxCell>
        <mxCell id="CmlGcjkPcIgELrgO4bC8-55" value="是" style="edgeLabel;html=1;align=center;verticalAlign=middle;resizable=0;points=[];" vertex="1" connectable="0" parent="CmlGcjkPcIgELrgO4bC8-54">
          <mxGeometry x="-0.263" y="4" relative="1" as="geometry">
            <mxPoint as="offset" />
          </mxGeometry>
        </mxCell>
        <mxCell id="CmlGcjkPcIgELrgO4bC8-56" style="edgeStyle=orthogonalEdgeStyle;rounded=0;orthogonalLoop=1;jettySize=auto;html=1;exitX=1;exitY=0.5;exitDx=0;exitDy=0;entryX=1;entryY=0.5;entryDx=0;entryDy=0;" edge="1" parent="WIyWlLk6GJQsqaUBKTNV-1" source="CmlGcjkPcIgELrgO4bC8-48" target="CmlGcjkPcIgELrgO4bC8-57">
          <mxGeometry relative="1" as="geometry">
            <mxPoint x="680" y="380" as="targetPoint" />
          </mxGeometry>
        </mxCell>
        <mxCell id="CmlGcjkPcIgELrgO4bC8-59" value="否" style="edgeLabel;html=1;align=center;verticalAlign=middle;resizable=0;points=[];" vertex="1" connectable="0" parent="CmlGcjkPcIgELrgO4bC8-56">
          <mxGeometry x="-0.2367" y="-2" relative="1" as="geometry">
            <mxPoint as="offset" />
          </mxGeometry>
        </mxCell>
        <mxCell id="CmlGcjkPcIgELrgO4bC8-48" value="KEY2按下吗？" style="rhombus;whiteSpace=wrap;html=1;" vertex="1" parent="WIyWlLk6GJQsqaUBKTNV-1">
          <mxGeometry x="540" y="260" width="100" height="40" as="geometry" />
        </mxCell>
        <mxCell id="CmlGcjkPcIgELrgO4bC8-50" value="" style="endArrow=classic;html=1;rounded=0;" edge="1" parent="WIyWlLk6GJQsqaUBKTNV-1">
          <mxGeometry width="50" height="50" relative="1" as="geometry">
            <mxPoint x="680" y="260" as="sourcePoint" />
            <mxPoint x="590" y="260" as="targetPoint" />
          </mxGeometry>
        </mxCell>
        <mxCell id="CmlGcjkPcIgELrgO4bC8-58" style="edgeStyle=orthogonalEdgeStyle;rounded=0;orthogonalLoop=1;jettySize=auto;html=1;exitX=0.5;exitY=1;exitDx=0;exitDy=0;entryX=0.5;entryY=0;entryDx=0;entryDy=0;" edge="1" parent="WIyWlLk6GJQsqaUBKTNV-1" source="CmlGcjkPcIgELrgO4bC8-53" target="CmlGcjkPcIgELrgO4bC8-57">
          <mxGeometry relative="1" as="geometry" />
        </mxCell>
        <mxCell id="CmlGcjkPcIgELrgO4bC8-53" value="&lt;font size=&quot;1&quot;&gt;切换定时器1的开关状态&lt;/font&gt;&lt;div&gt;&lt;font size=&quot;1&quot;&gt;（暂停/运行）&lt;/font&gt;&lt;/div&gt;" style="rounded=0;whiteSpace=wrap;html=1;" vertex="1" parent="WIyWlLk6GJQsqaUBKTNV-1">
          <mxGeometry x="530" y="320" width="120" height="30" as="geometry" />
        </mxCell>
        <mxCell id="CmlGcjkPcIgELrgO4bC8-57" value="结束" style="rounded=1;whiteSpace=wrap;html=1;fontSize=12;glass=0;strokeWidth=1;shadow=0;" vertex="1" parent="WIyWlLk6GJQsqaUBKTNV-1">
          <mxGeometry x="560" y="370" width="60" height="20" as="geometry" />
        </mxCell>
      </root>
    </mxGraphModel>
  </diagram>
</mxfile>
